<svg width="25" height="25" viewBox="0 0 25 25" xmlns="http://www.w3.org/2000/svg" id="logo-vk">
<path fill-rule="evenodd" clip-rule="evenodd" d="M0 12.5C0 5.59692 5.59692 0 12.5 0C19.4031 0 25 5.59692 25 12.5C25 19.4031 19.4031 25 12.5 25C5.59692 25 0 19.4031 0 12.5ZM14.6408 15.7197C14.3024 15.3275 13.9899 14.9655 13.7227 15.0518C13.2754 15.1953 13.2898 16.1719 13.2898 16.1719C13.2898 16.1719 13.2944 16.3807 13.1907 16.4918C13.0795 16.6113 12.8624 16.6364 12.8624 16.6364H12.1423C12.1423 16.6364 10.5531 16.734 9.15472 15.2606C7.62944 13.6556 6.28242 10.4694 6.28242 10.4694C6.28242 10.4694 6.20509 10.261 6.28937 10.16C6.38429 10.0461 6.64267 10.0388 6.64267 10.0388L8.36244 10.0277C8.36244 10.0277 8.52452 10.0549 8.64027 10.1406C8.73752 10.2129 8.79123 10.3448 8.79123 10.3448C8.79123 10.3448 9.0686 11.0552 9.43581 11.6979C10.1549 12.9546 10.4892 13.2288 10.7337 13.0945C11.0898 12.8986 10.9838 11.3191 10.9838 11.3191C10.9838 11.3191 10.9893 10.7463 10.8036 10.4907C10.6592 10.2935 10.3892 10.2356 10.2688 10.2194C10.173 10.2064 10.3309 9.97998 10.5369 9.87671C10.8472 9.72437 11.3945 9.7146 12.0391 9.72437C12.5433 9.729 12.6878 9.7605 12.8855 9.80859C13.3415 9.91992 13.3274 10.2776 13.2969 11.0496C13.2878 11.2794 13.2773 11.546 13.2773 11.8539C13.2773 11.9238 13.2752 11.9984 13.2731 12.0752C13.2623 12.4694 13.2498 12.9197 13.506 13.0875C13.6394 13.1741 13.9612 13.1005 14.7674 11.7164C15.1231 11.1064 15.396 10.396 15.4323 10.3013L15.4365 10.2906C15.5045 10.1073 15.6541 10.0526 15.8305 10.0522L17.6425 10.0397C17.6425 10.0397 18.1856 9.97485 18.2745 10.2245C18.3671 10.4838 18.0712 11.0927 17.3318 12.0896C16.6292 13.0363 16.2876 13.3837 16.3199 13.6918C16.3435 13.916 16.565 14.1194 16.9896 14.5178C17.9536 15.4222 18.1537 15.8617 18.1865 15.9172C18.5838 16.585 17.7434 16.6368 17.7434 16.6368L16.1352 16.6599C16.1352 16.6599 15.7884 16.728 15.3355 16.4127C15.0964 16.2477 14.863 15.9772 14.6408 15.7197Z"/>
</svg>
