<svg width="25" height="25" viewBox="0 0 25 25" xmlns="http://www.w3.org/2000/svg" id="logo-reddit">
<path fill-rule="evenodd" clip-rule="evenodd" d="M0 12.5C0 5.59692 5.59692 0 12.5 0C19.4031 0 25 5.59692 25 12.5C25 19.4031 19.4031 25 12.5 25C5.59692 25 0 19.4031 0 12.5ZM12.7195 6.10742C12.9876 5.78162 13.4055 5.55566 13.8509 5.55566C14.5707 5.55566 15.054 6.04797 15.3031 6.37378C15.3419 6.42419 15.3768 6.47119 15.4084 6.51355C15.478 6.60718 15.5311 6.67859 15.5733 6.71619C15.6345 6.771 15.6514 6.77332 15.7421 6.77332V7.99097C15.4171 7.99097 15.1174 7.84119 14.9147 7.66748C14.7121 7.4939 14.5854 7.31555 14.4757 7.17285C14.4534 7.14392 14.4329 7.1167 14.4137 7.09119C14.2455 6.86719 14.1749 6.77332 13.8509 6.77332C13.6841 6.77332 13.6124 6.82324 13.5132 6.94458C13.414 7.0658 13.3211 7.28699 13.243 7.59143C13.1184 8.07654 13.0741 8.72107 13.0572 9.3418C14.3026 9.42749 15.4297 9.79846 16.3669 10.3693C16.749 10.0481 17.2091 9.86975 17.6503 9.87451C18.1527 9.87927 18.6297 10.0957 18.9843 10.5404C19.6619 11.3895 19.5838 12.7783 18.7986 13.6036C18.8471 13.858 18.883 14.1196 18.883 14.3837C18.883 17.1781 16.025 19.4446 12.5 19.4446C8.97498 19.4446 6.11699 17.1804 6.11699 14.3837C6.11699 14.1196 6.15286 13.858 6.20142 13.6036C5.4162 12.7783 5.3381 11.3895 6.01567 10.5404C6.37027 10.0957 6.84731 9.87927 7.34969 9.87451C7.79083 9.86975 8.25098 10.0481 8.63304 10.3693C9.57445 9.79602 10.7079 9.42505 11.9596 9.3418C11.9723 8.66882 12.0251 7.922 12.196 7.24902C12.3037 6.83044 12.4514 6.43323 12.7195 6.10742ZM15.8435 7.3822C15.8435 6.43567 16.5231 5.6698 17.3632 5.6698C18.2033 5.6698 18.883 6.43567 18.883 7.3822C18.883 8.32874 18.2033 9.09448 17.3632 9.09448C16.5231 9.09448 15.8435 8.32874 15.8435 7.3822ZM18.3426 7.3822C18.3426 6.77332 17.9036 6.27869 17.3632 6.27869C16.8229 6.27869 16.3838 6.77332 16.3838 7.3822C16.3838 7.99097 16.8229 8.4856 17.3632 8.4856C17.9036 8.4856 18.3426 7.99097 18.3426 7.3822ZM18.0218 14.3837C18.0218 12.1696 15.491 10.2931 12.5 10.2931C9.509 10.2931 6.97818 12.1696 6.97818 14.3837C6.97818 16.6002 9.509 18.4742 12.5 18.4742C15.491 18.4742 18.0218 16.6002 18.0218 14.3837ZM7.82249 10.959C7.67262 10.8853 7.51643 10.8473 7.36656 10.8448C7.09006 10.8425 6.83887 10.959 6.65735 11.1874C6.40826 11.4989 6.35339 12.0863 6.55603 12.5571C6.84943 11.9554 7.28003 11.4227 7.82249 10.959ZM18.3426 11.1874C18.1611 10.959 17.9099 10.8425 17.6334 10.8448C17.4836 10.8473 17.3273 10.8853 17.1775 10.959C17.72 11.4227 18.1505 11.9554 18.444 12.5571C18.6466 12.0863 18.5917 11.4989 18.3426 11.1874ZM9.35915 13.4705C9.35915 12.8616 9.79819 12.3669 10.3385 12.3669C10.8789 12.3669 11.3179 12.8616 11.3179 13.4705C11.3179 14.0792 10.8789 14.574 10.3385 14.574C9.79819 14.574 9.35915 14.0792 9.35915 13.4705ZM13.682 13.4705C13.682 12.8616 14.1211 12.3669 14.6614 12.3669C15.2018 12.3669 15.6408 12.8616 15.6408 13.4705C15.6408 14.0792 15.2018 14.574 14.6614 14.574C14.1211 14.574 13.682 14.0792 13.682 13.4705ZM12.5 17.6942C11.223 17.6942 10.1591 16.9165 9.81508 16.115C10.4399 16.5692 11.4087 16.8761 12.5 16.8761C13.5913 16.8761 14.577 16.5692 15.2018 16.115C14.8577 16.9165 13.777 17.6942 12.5 17.6942Z"/>
</svg>
