<svg xmlns="http://www.w3.org/2000/svg" xmlns:xlink="http://www.w3.org/1999/xlink"><symbol id="icon-left-s" viewBox="0 0 12 21">
<path d="M11 20L1 10.5L11 1" stroke="#AFAFAF"/>
</symbol><symbol id="icon-left" viewBox="0 0 18 34"><g fill="none">
<path d="M17 1L0.999999 17L17 33" stroke="#AFAFAF"/>
</g></symbol><symbol id="icon-right-s" viewBox="0 0 12 21">
<path d="M1 1L11 10.5L1 20" stroke="#AFAFAF"/>
</symbol><symbol id="icon-right" viewBox="0 0 18 34"><g fill="none">
<path d="M1 1L17 17L1 33" stroke="#AFAFAF"/>
</g></symbol><symbol id="icon-rouble" viewBox="0 0 30 42">
<path fill-rule="evenodd" clip-rule="evenodd" d="M18.5 6H10V17H18.5C21.5376 17 24 14.5376 24 11.5C24 8.46243 21.5376 6 18.5 6ZM4 0V23H18.5C24.8513 23 30 17.8513 30 11.5C30 5.14873 24.8513 0 18.5 0H4Z"/>
<path fill-rule="evenodd" clip-rule="evenodd" d="M0 17H6V23H0V17Z"/>
<path fill-rule="evenodd" clip-rule="evenodd" d="M3.65854 28.3214V18H9.65854V28.3214H21V34.3214H9.65854V42H3.65854V34.3214H0V28.3214H3.65854Z"/>
</symbol><symbol id="logo-ok" viewBox="0 0 25 25">
<path fill-rule="evenodd" clip-rule="evenodd" d="M0 12.5C0 5.59692 5.59692 0 12.5 0C19.4031 0 25 5.59692 25 12.5C25 19.4031 19.4031 25 12.5 25C5.59692 25 0 19.4031 0 12.5ZM14.3095 8.57068C14.3095 7.64307 13.5788 6.88879 12.6803 6.88879C11.7818 6.88879 11.0511 7.64307 11.0511 8.57068C11.0511 9.49536 11.7818 10.2496 12.6803 10.2496C13.5788 10.2496 14.3095 9.49536 14.3095 8.57068ZM16.6153 8.57068C16.6153 10.8083 14.8508 12.6299 12.6803 12.6299C10.5099 12.6299 8.74808 10.8083 8.74808 8.57068C8.74808 6.33008 10.5099 4.50854 12.6803 4.50854C14.8508 4.50854 16.6153 6.33008 16.6153 8.57068ZM16.5558 14.9655C15.844 15.4264 15.0727 15.7533 14.2717 15.9432L16.4719 18.2118C16.9211 18.6755 16.9211 19.4298 16.4719 19.8936C16.0199 20.3601 15.2919 20.3601 14.8427 19.8936L12.6803 17.6642L10.5207 19.8936C10.2934 20.1255 9.9984 20.2428 9.7034 20.2428C9.40842 20.2428 9.11613 20.1255 8.88881 19.8936C8.43956 19.4298 8.43956 18.6755 8.88881 18.2118L11.089 15.9432C10.288 15.7533 9.51666 15.4264 8.80492 14.9655C8.26636 14.6162 8.10397 13.8815 8.44226 13.3256C8.78055 12.7668 9.49231 12.5991 10.0309 12.9512C11.6438 13.996 13.7169 13.996 15.3271 12.9512C15.8684 12.5991 16.5774 12.7668 16.9184 13.3256C17.2567 13.8815 17.0943 14.6162 16.5558 14.9655Z"/>
</symbol><symbol id="logo-reddit" viewBox="0 0 25 25">
<path fill-rule="evenodd" clip-rule="evenodd" d="M0 12.5C0 5.59692 5.59692 0 12.5 0C19.4031 0 25 5.59692 25 12.5C25 19.4031 19.4031 25 12.5 25C5.59692 25 0 19.4031 0 12.5ZM12.7195 6.10742C12.9876 5.78162 13.4055 5.55566 13.8509 5.55566C14.5707 5.55566 15.054 6.04797 15.3031 6.37378C15.3419 6.42419 15.3768 6.47119 15.4084 6.51355C15.478 6.60718 15.5311 6.67859 15.5733 6.71619C15.6345 6.771 15.6514 6.77332 15.7421 6.77332V7.99097C15.4171 7.99097 15.1174 7.84119 14.9147 7.66748C14.7121 7.4939 14.5854 7.31555 14.4757 7.17285C14.4534 7.14392 14.4329 7.1167 14.4137 7.09119C14.2455 6.86719 14.1749 6.77332 13.8509 6.77332C13.6841 6.77332 13.6124 6.82324 13.5132 6.94458C13.414 7.0658 13.3211 7.28699 13.243 7.59143C13.1184 8.07654 13.0741 8.72107 13.0572 9.3418C14.3026 9.42749 15.4297 9.79846 16.3669 10.3693C16.749 10.0481 17.2091 9.86975 17.6503 9.87451C18.1527 9.87927 18.6297 10.0957 18.9843 10.5404C19.6619 11.3895 19.5838 12.7783 18.7986 13.6036C18.8471 13.858 18.883 14.1196 18.883 14.3837C18.883 17.1781 16.025 19.4446 12.5 19.4446C8.97498 19.4446 6.11699 17.1804 6.11699 14.3837C6.11699 14.1196 6.15286 13.858 6.20142 13.6036C5.4162 12.7783 5.3381 11.3895 6.01567 10.5404C6.37027 10.0957 6.84731 9.87927 7.34969 9.87451C7.79083 9.86975 8.25098 10.0481 8.63304 10.3693C9.57445 9.79602 10.7079 9.42505 11.9596 9.3418C11.9723 8.66882 12.0251 7.922 12.196 7.24902C12.3037 6.83044 12.4514 6.43323 12.7195 6.10742ZM15.8435 7.3822C15.8435 6.43567 16.5231 5.6698 17.3632 5.6698C18.2033 5.6698 18.883 6.43567 18.883 7.3822C18.883 8.32874 18.2033 9.09448 17.3632 9.09448C16.5231 9.09448 15.8435 8.32874 15.8435 7.3822ZM18.3426 7.3822C18.3426 6.77332 17.9036 6.27869 17.3632 6.27869C16.8229 6.27869 16.3838 6.77332 16.3838 7.3822C16.3838 7.99097 16.8229 8.4856 17.3632 8.4856C17.9036 8.4856 18.3426 7.99097 18.3426 7.3822ZM18.0218 14.3837C18.0218 12.1696 15.491 10.2931 12.5 10.2931C9.509 10.2931 6.97818 12.1696 6.97818 14.3837C6.97818 16.6002 9.509 18.4742 12.5 18.4742C15.491 18.4742 18.0218 16.6002 18.0218 14.3837ZM7.82249 10.959C7.67262 10.8853 7.51643 10.8473 7.36656 10.8448C7.09006 10.8425 6.83887 10.959 6.65735 11.1874C6.40826 11.4989 6.35339 12.0863 6.55603 12.5571C6.84943 11.9554 7.28003 11.4227 7.82249 10.959ZM18.3426 11.1874C18.1611 10.959 17.9099 10.8425 17.6334 10.8448C17.4836 10.8473 17.3273 10.8853 17.1775 10.959C17.72 11.4227 18.1505 11.9554 18.444 12.5571C18.6466 12.0863 18.5917 11.4989 18.3426 11.1874ZM9.35915 13.4705C9.35915 12.8616 9.79819 12.3669 10.3385 12.3669C10.8789 12.3669 11.3179 12.8616 11.3179 13.4705C11.3179 14.0792 10.8789 14.574 10.3385 14.574C9.79819 14.574 9.35915 14.0792 9.35915 13.4705ZM13.682 13.4705C13.682 12.8616 14.1211 12.3669 14.6614 12.3669C15.2018 12.3669 15.6408 12.8616 15.6408 13.4705C15.6408 14.0792 15.2018 14.574 14.6614 14.574C14.1211 14.574 13.682 14.0792 13.682 13.4705ZM12.5 17.6942C11.223 17.6942 10.1591 16.9165 9.81508 16.115C10.4399 16.5692 11.4087 16.8761 12.5 16.8761C13.5913 16.8761 14.577 16.5692 15.2018 16.115C14.8577 16.9165 13.777 17.6942 12.5 17.6942Z"/>
</symbol><symbol id="logo-vk" viewBox="0 0 25 25">
<path fill-rule="evenodd" clip-rule="evenodd" d="M0 12.5C0 5.59692 5.59692 0 12.5 0C19.4031 0 25 5.59692 25 12.5C25 19.4031 19.4031 25 12.5 25C5.59692 25 0 19.4031 0 12.5ZM14.6408 15.7197C14.3024 15.3275 13.9899 14.9655 13.7227 15.0518C13.2754 15.1953 13.2898 16.1719 13.2898 16.1719C13.2898 16.1719 13.2944 16.3807 13.1907 16.4918C13.0795 16.6113 12.8624 16.6364 12.8624 16.6364H12.1423C12.1423 16.6364 10.5531 16.734 9.15472 15.2606C7.62944 13.6556 6.28242 10.4694 6.28242 10.4694C6.28242 10.4694 6.20509 10.261 6.28937 10.16C6.38429 10.0461 6.64267 10.0388 6.64267 10.0388L8.36244 10.0277C8.36244 10.0277 8.52452 10.0549 8.64027 10.1406C8.73752 10.2129 8.79123 10.3448 8.79123 10.3448C8.79123 10.3448 9.0686 11.0552 9.43581 11.6979C10.1549 12.9546 10.4892 13.2288 10.7337 13.0945C11.0898 12.8986 10.9838 11.3191 10.9838 11.3191C10.9838 11.3191 10.9893 10.7463 10.8036 10.4907C10.6592 10.2935 10.3892 10.2356 10.2688 10.2194C10.173 10.2064 10.3309 9.97998 10.5369 9.87671C10.8472 9.72437 11.3945 9.7146 12.0391 9.72437C12.5433 9.729 12.6878 9.7605 12.8855 9.80859C13.3415 9.91992 13.3274 10.2776 13.2969 11.0496C13.2878 11.2794 13.2773 11.546 13.2773 11.8539C13.2773 11.9238 13.2752 11.9984 13.2731 12.0752C13.2623 12.4694 13.2498 12.9197 13.506 13.0875C13.6394 13.1741 13.9612 13.1005 14.7674 11.7164C15.1231 11.1064 15.396 10.396 15.4323 10.3013L15.4365 10.2906C15.5045 10.1073 15.6541 10.0526 15.8305 10.0522L17.6425 10.0397C17.6425 10.0397 18.1856 9.97485 18.2745 10.2245C18.3671 10.4838 18.0712 11.0927 17.3318 12.0896C16.6292 13.0363 16.2876 13.3837 16.3199 13.6918C16.3435 13.916 16.565 14.1194 16.9896 14.5178C17.9536 15.4222 18.1537 15.8617 18.1865 15.9172C18.5838 16.585 17.7434 16.6368 17.7434 16.6368L16.1352 16.6599C16.1352 16.6599 15.7884 16.728 15.3355 16.4127C15.0964 16.2477 14.863 15.9772 14.6408 15.7197Z"/>
</symbol><symbol id="logo-w-fb" viewBox="0 0 12 9">
<path d="M4.55859 5.23242H1.67578V9H0.603516V0.46875H5.04492V1.39453H1.67578V4.3125H4.55859V5.23242ZM6.36914 9V0.46875H8.80078C9.57812 0.46875 10.1621 0.658203 10.5527 1.03711C10.9473 1.41602 11.1445 1.98438 11.1445 2.74219C11.1445 3.14062 11.0449 3.49219 10.8457 3.79688C10.6465 4.10156 10.377 4.33789 10.0371 4.50586C10.4277 4.62305 10.7363 4.86328 10.9629 5.22656C11.1934 5.58984 11.3086 6.02734 11.3086 6.53906C11.3086 7.30469 11.0977 7.90625 10.6758 8.34375C10.2578 8.78125 9.66016 9 8.88281 9H6.36914ZM7.44141 5.00977V8.08008H8.90625C9.3125 8.08008 9.63477 7.94727 9.87305 7.68164C10.1113 7.41211 10.2305 7.03516 10.2305 6.55078C10.2305 5.52344 9.79688 5.00977 8.92969 5.00977H7.44141ZM7.44141 4.10742H8.81836C9.18945 4.10742 9.48828 3.98242 9.71484 3.73242C9.94531 3.48242 10.0605 3.15039 10.0605 2.73633C10.0605 2.26758 9.95703 1.92773 9.75 1.7168C9.54297 1.50195 9.22656 1.39453 8.80078 1.39453H7.44141V4.10742Z"/>
</symbol><symbol id="logo-w-ig" viewBox="0 0 10 10">
<path d="M1.94922 9H0.876953V0.46875H1.94922V9ZM9.16797 7.93945L8.98047 8.17383C8.44141 8.80273 7.65234 9.11719 6.61328 9.11719C5.69141 9.11719 4.9668 8.8125 4.43945 8.20312C3.91602 7.58984 3.64844 6.72461 3.63672 5.60742V3.93164C3.63672 2.73633 3.875 1.8418 4.35156 1.24805C4.83203 0.650391 5.54883 0.351562 6.50195 0.351562C7.31445 0.351562 7.94922 0.578125 8.40625 1.03125C8.86719 1.48437 9.12109 2.13086 9.16797 2.9707H8.0957C8.05273 2.43945 7.9043 2.02539 7.65039 1.72852C7.40039 1.42773 7.01953 1.27734 6.50781 1.27734C5.89453 1.27734 5.44531 1.47852 5.16016 1.88086C4.875 2.2793 4.72656 2.91797 4.71484 3.79688V5.53711C4.71484 6.39648 4.87891 7.05664 5.20703 7.51758C5.53516 7.97461 6.00586 8.20312 6.61914 8.20312C7.19727 8.20312 7.63672 8.0625 7.9375 7.78125L8.0957 7.63477V5.66602H6.53711V4.75195H9.16797V7.93945Z"/>
</symbol><symbol id="logo-w-vk" viewBox="0 0 14 9">
<path d="M4.0918 7.35352L6.04297 0.46875H7.2207L4.56641 9H3.62891L0.980469 0.46875H2.15234L4.0918 7.35352ZM10.291 5.06836L9.45312 6.08203V9H8.38086V0.46875H9.45312V4.58789L10.1562 3.65625L12.4531 0.46875H13.7422L10.9707 4.22461L13.959 9H12.6758L10.291 5.06836Z"/>
</symbol></svg>